<mxfile host="app.diagrams.net" modified="2020-12-08T10:25:22.280Z" agent="5.0 (Windows NT 10.0; Win64; x64) AppleWebKit/537.36 (KHTML, like Gecko) Chrome/86.0.4240.198 Safari/537.36" etag="3hcLau8GeyZlqjZUkJab" version="13.11.0" type="github">
  <diagram name="Page-1" id="bfe91b75-5d2c-26a0-9c1d-138518896778">
    <mxGraphModel dx="868" dy="482" grid="1" gridSize="10" guides="1" tooltips="1" connect="1" arrows="1" fold="1" page="1" pageScale="1" pageWidth="1100" pageHeight="850" background="#ffffff" math="0" shadow="0">
      <root>
        <mxCell id="0" />
        <mxCell id="1" parent="0" />
        <mxCell id="DepcvScx0P5Axww81PKc-2" value="" style="rounded=0;whiteSpace=wrap;html=1;" vertex="1" parent="1">
          <mxGeometry x="170" width="1190" height="610" as="geometry" />
        </mxCell>
        <mxCell id="DepcvScx0P5Axww81PKc-10" value="" style="rounded=0;whiteSpace=wrap;html=1;" vertex="1" parent="1">
          <mxGeometry x="1390" y="10" width="430" height="600" as="geometry" />
        </mxCell>
        <mxCell id="DepcvScx0P5Axww81PKc-12" value="" style="rounded=0;whiteSpace=wrap;html=1;" vertex="1" parent="1">
          <mxGeometry x="200" y="34" width="290" height="470" as="geometry" />
        </mxCell>
        <mxCell id="DepcvScx0P5Axww81PKc-13" value="" style="verticalLabelPosition=bottom;aspect=fixed;html=1;verticalAlign=top;strokeColor=none;shape=mxgraph.citrix.tower_server;rounded=0;shadow=0;comic=0;fontFamily=Verdana;fontStyle=1" vertex="1" parent="1">
          <mxGeometry x="296.56" y="110" width="65" height="85" as="geometry" />
        </mxCell>
        <mxCell id="DepcvScx0P5Axww81PKc-14" value="" style="verticalLabelPosition=bottom;aspect=fixed;html=1;verticalAlign=top;strokeColor=none;align=center;outlineConnect=0;shape=mxgraph.citrix.globe;" vertex="1" parent="1">
          <mxGeometry x="326.56" y="160" width="41.87" height="40" as="geometry" />
        </mxCell>
        <mxCell id="DepcvScx0P5Axww81PKc-15" value="" style="verticalLabelPosition=bottom;aspect=fixed;html=1;verticalAlign=top;strokeColor=none;shape=mxgraph.citrix.tower_server;rounded=0;shadow=0;comic=0;fontFamily=Verdana;fontStyle=1" vertex="1" parent="1">
          <mxGeometry x="300.00000000000006" y="255" width="65" height="85" as="geometry" />
        </mxCell>
        <mxCell id="DepcvScx0P5Axww81PKc-16" value="" style="verticalLabelPosition=bottom;aspect=fixed;html=1;verticalAlign=top;strokeColor=none;align=center;outlineConnect=0;shape=mxgraph.citrix.globe;" vertex="1" parent="1">
          <mxGeometry x="330.00000000000006" y="305" width="41.87" height="40" as="geometry" />
        </mxCell>
        <mxCell id="DepcvScx0P5Axww81PKc-17" value="" style="verticalLabelPosition=bottom;aspect=fixed;html=1;verticalAlign=top;strokeColor=none;shape=mxgraph.citrix.tower_server;rounded=0;shadow=0;comic=0;fontFamily=Verdana;fontStyle=1" vertex="1" parent="1">
          <mxGeometry x="300.00000000000006" y="375" width="65" height="85" as="geometry" />
        </mxCell>
        <mxCell id="DepcvScx0P5Axww81PKc-18" value="" style="verticalLabelPosition=bottom;aspect=fixed;html=1;verticalAlign=top;strokeColor=none;align=center;outlineConnect=0;shape=mxgraph.citrix.globe;" vertex="1" parent="1">
          <mxGeometry x="330.00000000000006" y="425" width="41.87" height="40" as="geometry" />
        </mxCell>
        <object label="10.147.49.24" id="DepcvScx0P5Axww81PKc-20">
          <mxCell style="rounded=0;whiteSpace=wrap;html=1;" vertex="1" parent="1">
            <mxGeometry x="272.5" y="78" width="120" height="20" as="geometry" />
          </mxCell>
        </object>
        <mxCell id="DepcvScx0P5Axww81PKc-21" value="IIS Server" style="text;html=1;strokeColor=none;fillColor=none;align=center;verticalAlign=middle;whiteSpace=wrap;rounded=0;" vertex="1" parent="1">
          <mxGeometry x="295" y="48" width="70" height="20" as="geometry" />
        </mxCell>
        <mxCell id="DepcvScx0P5Axww81PKc-22" value="Identity Server (Access Management" style="text;html=1;strokeColor=none;fillColor=none;align=center;verticalAlign=middle;whiteSpace=wrap;rounded=0;fontSize=10;" vertex="1" parent="1">
          <mxGeometry x="220" y="210" width="230" height="20" as="geometry" />
        </mxCell>
        <mxCell id="DepcvScx0P5Axww81PKc-23" value="Web API" style="text;html=1;strokeColor=none;fillColor=none;align=center;verticalAlign=middle;whiteSpace=wrap;rounded=0;fontSize=10;" vertex="1" parent="1">
          <mxGeometry x="260" y="345" width="145" height="20" as="geometry" />
        </mxCell>
        <mxCell id="DepcvScx0P5Axww81PKc-24" value="Web Application" style="text;html=1;strokeColor=none;fillColor=none;align=center;verticalAlign=middle;whiteSpace=wrap;rounded=0;fontSize=10;" vertex="1" parent="1">
          <mxGeometry x="256.56" y="465" width="145" height="20" as="geometry" />
        </mxCell>
        <mxCell id="DepcvScx0P5Axww81PKc-25" value="Active Directory&lt;br&gt;LLDAP://PRU.intranet.asia" style="rounded=0;whiteSpace=wrap;html=1;fontSize=10;" vertex="1" parent="1">
          <mxGeometry x="20" y="110" width="130" height="90" as="geometry" />
        </mxCell>
        <mxCell id="DepcvScx0P5Axww81PKc-26" value="" style="endArrow=classic;html=1;fontSize=10;entryX=1;entryY=0.5;entryDx=0;entryDy=0;" edge="1" parent="1" source="DepcvScx0P5Axww81PKc-13" target="DepcvScx0P5Axww81PKc-25">
          <mxGeometry width="50" height="50" relative="1" as="geometry">
            <mxPoint x="260" y="270" as="sourcePoint" />
            <mxPoint x="310" y="220" as="targetPoint" />
          </mxGeometry>
        </mxCell>
        <mxCell id="DepcvScx0P5Axww81PKc-27" value="" style="rounded=0;whiteSpace=wrap;html=1;fontSize=10;" vertex="1" parent="1">
          <mxGeometry x="510" y="34" width="290" height="466" as="geometry" />
        </mxCell>
        <object label="10.147.49.25" id="DepcvScx0P5Axww81PKc-28">
          <mxCell style="rounded=0;whiteSpace=wrap;html=1;" vertex="1" parent="1">
            <mxGeometry x="590" y="58" width="120" height="20" as="geometry" />
          </mxCell>
        </object>
        <mxCell id="DepcvScx0P5Axww81PKc-29" value="" style="html=1;verticalLabelPosition=bottom;align=center;labelBackgroundColor=#ffffff;verticalAlign=top;strokeWidth=2;strokeColor=#0080F0;shadow=0;dashed=0;shape=mxgraph.ios7.icons.data;" vertex="1" parent="1">
          <mxGeometry x="655" y="255" width="70" height="92" as="geometry" />
        </mxCell>
        <mxCell id="DepcvScx0P5Axww81PKc-30" value="SAWF (MS SQL Server)" style="text;html=1;strokeColor=none;fillColor=none;align=center;verticalAlign=middle;whiteSpace=wrap;rounded=0;fontSize=10;" vertex="1" parent="1">
          <mxGeometry x="575" y="357" width="230" height="20" as="geometry" />
        </mxCell>
        <mxCell id="DepcvScx0P5Axww81PKc-33" value="" style="edgeStyle=orthogonalEdgeStyle;html=1;endArrow=block;elbow=vertical;startArrow=block;startFill=1;endFill=1;strokeColor=#545B64;rounded=0;fontSize=10;" edge="1" parent="1" source="DepcvScx0P5Axww81PKc-13" target="DepcvScx0P5Axww81PKc-29">
          <mxGeometry width="100" relative="1" as="geometry">
            <mxPoint x="510" y="270" as="sourcePoint" />
            <mxPoint x="610" y="270" as="targetPoint" />
            <Array as="points">
              <mxPoint x="690" y="150" />
            </Array>
          </mxGeometry>
        </mxCell>
        <mxCell id="DepcvScx0P5Axww81PKc-34" value="" style="edgeStyle=elbowEdgeStyle;rounded=0;elbow=vertical;html=1;labelBackgroundColor=#ffffff;startArrow=classic;startFill=1;startSize=6;endArrow=classic;endFill=1;endSize=6;jettySize=auto;orthogonalLoop=1;strokeWidth=1;fontSize=14;exitX=1.077;exitY=0.576;exitDx=0;exitDy=0;exitPerimeter=0;" edge="1" parent="1" source="DepcvScx0P5Axww81PKc-15" target="DepcvScx0P5Axww81PKc-29">
          <mxGeometry width="60" height="60" relative="1" as="geometry">
            <mxPoint x="530" y="300" as="sourcePoint" />
            <mxPoint x="590" y="240" as="targetPoint" />
            <Array as="points">
              <mxPoint x="360" y="304" />
            </Array>
          </mxGeometry>
        </mxCell>
        <mxCell id="DepcvScx0P5Axww81PKc-35" value="" style="rounded=0;whiteSpace=wrap;html=1;fontSize=10;" vertex="1" parent="1">
          <mxGeometry x="820" y="34" width="490" height="316" as="geometry" />
        </mxCell>
        <mxCell id="DepcvScx0P5Axww81PKc-36" value="" style="html=1;verticalLabelPosition=bottom;align=center;labelBackgroundColor=#ffffff;verticalAlign=top;strokeWidth=2;strokeColor=#0080F0;shadow=0;dashed=0;shape=mxgraph.ios7.icons.data;" vertex="1" parent="1">
          <mxGeometry x="850" y="183" width="70" height="92" as="geometry" />
        </mxCell>
        <mxCell id="DepcvScx0P5Axww81PKc-37" value="RAW (MS SQL Server)" style="text;html=1;strokeColor=none;fillColor=none;align=center;verticalAlign=middle;whiteSpace=wrap;rounded=0;fontSize=10;" vertex="1" parent="1">
          <mxGeometry x="830" y="285" width="130" height="20" as="geometry" />
        </mxCell>
        <object label="10.147.49.23" id="DepcvScx0P5Axww81PKc-38">
          <mxCell style="rounded=0;whiteSpace=wrap;html=1;" vertex="1" parent="1">
            <mxGeometry x="930" y="48" width="120" height="20" as="geometry" />
          </mxCell>
        </object>
        <mxCell id="DepcvScx0P5Axww81PKc-41" value="" style="endArrow=classic;html=1;fontSize=10;" edge="1" parent="1">
          <mxGeometry width="50" height="50" relative="1" as="geometry">
            <mxPoint x="802" y="252" as="sourcePoint" />
            <mxPoint x="848" y="252" as="targetPoint" />
          </mxGeometry>
        </mxCell>
        <mxCell id="DepcvScx0P5Axww81PKc-42" value="SAWF Middleware" style="rounded=1;whiteSpace=wrap;html=1;fontSize=10;" vertex="1" parent="1">
          <mxGeometry x="1100" y="190" width="120" height="60" as="geometry" />
        </mxCell>
        <mxCell id="DepcvScx0P5Axww81PKc-43" value="Replicated the data" style="text;html=1;strokeColor=none;fillColor=none;align=center;verticalAlign=middle;whiteSpace=wrap;rounded=0;fontSize=10;" vertex="1" parent="1">
          <mxGeometry x="970" y="219" width="130" height="20" as="geometry" />
        </mxCell>
        <mxCell id="DepcvScx0P5Axww81PKc-44" value="" style="endArrow=classic;html=1;fontSize=10;" edge="1" parent="1" source="DepcvScx0P5Axww81PKc-43" target="DepcvScx0P5Axww81PKc-36">
          <mxGeometry width="50" height="50" relative="1" as="geometry">
            <mxPoint x="970" y="300" as="sourcePoint" />
            <mxPoint x="1020" y="250" as="targetPoint" />
          </mxGeometry>
        </mxCell>
        <mxCell id="DepcvScx0P5Axww81PKc-45" value="" style="rounded=0;whiteSpace=wrap;html=1;fontSize=10;" vertex="1" parent="1">
          <mxGeometry x="1110" y="365" width="200" height="135" as="geometry" />
        </mxCell>
        <mxCell id="DepcvScx0P5Axww81PKc-46" value="" style="image;html=1;image=img/lib/clip_art/general/Full_Folder_128x128.png;fontSize=10;" vertex="1" parent="1">
          <mxGeometry x="1180" y="377" width="40" height="35" as="geometry" />
        </mxCell>
        <mxCell id="DepcvScx0P5Axww81PKc-47" value="File Storage&lt;br&gt;(10.147.48.46)" style="text;html=1;strokeColor=none;fillColor=none;align=center;verticalAlign=middle;whiteSpace=wrap;rounded=0;fontSize=10;" vertex="1" parent="1">
          <mxGeometry x="1150" y="415" width="100" height="45" as="geometry" />
        </mxCell>
        <mxCell id="DepcvScx0P5Axww81PKc-54" value="" style="edgeStyle=elbowEdgeStyle;rounded=0;elbow=vertical;html=1;labelBackgroundColor=#ffffff;endArrow=classic;endFill=1;endSize=6;jettySize=auto;orthogonalLoop=1;strokeWidth=1;fontSize=14;exitX=0.25;exitY=1;exitDx=0;exitDy=0;" edge="1" parent="1" source="DepcvScx0P5Axww81PKc-35" target="DepcvScx0P5Axww81PKc-45">
          <mxGeometry width="60" height="60" relative="1" as="geometry">
            <mxPoint x="1050" y="290" as="sourcePoint" />
            <mxPoint x="1110" y="230" as="targetPoint" />
            <Array as="points">
              <mxPoint x="1040" y="450" />
            </Array>
          </mxGeometry>
        </mxCell>
        <mxCell id="DepcvScx0P5Axww81PKc-55" value="Save the file PDS into File Storage" style="text;html=1;strokeColor=none;fillColor=none;align=center;verticalAlign=middle;whiteSpace=wrap;rounded=0;fontSize=10;" vertex="1" parent="1">
          <mxGeometry x="880" y="460" width="180" height="20" as="geometry" />
        </mxCell>
        <mxCell id="DepcvScx0P5Axww81PKc-56" value="" style="outlineConnect=0;fontColor=#232F3E;gradientColor=none;fillColor=#232F3E;strokeColor=none;dashed=0;verticalLabelPosition=bottom;verticalAlign=top;align=center;html=1;fontSize=12;fontStyle=0;aspect=fixed;pointerEvents=1;shape=mxgraph.aws4.user;" vertex="1" parent="1">
          <mxGeometry x="850" y="530" width="50" height="50" as="geometry" />
        </mxCell>
        <mxCell id="DepcvScx0P5Axww81PKc-57" value="PCLA User" style="text;html=1;strokeColor=none;fillColor=none;align=center;verticalAlign=middle;whiteSpace=wrap;rounded=0;fontSize=10;" vertex="1" parent="1">
          <mxGeometry x="805" y="580" width="130" height="20" as="geometry" />
        </mxCell>
        <mxCell id="DepcvScx0P5Axww81PKc-66" value="" style="edgeStyle=elbowEdgeStyle;rounded=0;elbow=vertical;html=1;labelBackgroundColor=#ffffff;endArrow=classic;endFill=1;endSize=6;jettySize=auto;orthogonalLoop=1;strokeWidth=1;fontSize=14;entryX=0.5;entryY=1;entryDx=0;entryDy=0;" edge="1" parent="1" source="DepcvScx0P5Axww81PKc-56" target="DepcvScx0P5Axww81PKc-27">
          <mxGeometry width="60" height="60" relative="1" as="geometry">
            <mxPoint x="735" y="580" as="sourcePoint" />
            <mxPoint x="795" y="520" as="targetPoint" />
            <Array as="points">
              <mxPoint x="760" y="560" />
            </Array>
          </mxGeometry>
        </mxCell>
        <mxCell id="DepcvScx0P5Axww81PKc-67" value="Access via Client Application" style="text;html=1;strokeColor=none;fillColor=none;align=center;verticalAlign=middle;whiteSpace=wrap;rounded=0;fontSize=10;labelBackgroundColor=#FFFFFF;" vertex="1" parent="1">
          <mxGeometry x="660" y="550" width="145" height="20" as="geometry" />
        </mxCell>
        <mxCell id="DepcvScx0P5Axww81PKc-68" value="" style="edgeStyle=elbowEdgeStyle;rounded=0;elbow=vertical;html=1;labelBackgroundColor=#ffffff;endArrow=classic;endFill=1;endSize=6;jettySize=auto;orthogonalLoop=1;strokeWidth=1;fontSize=14;" edge="1" parent="1" source="DepcvScx0P5Axww81PKc-56" target="DepcvScx0P5Axww81PKc-45">
          <mxGeometry width="60" height="60" relative="1" as="geometry">
            <mxPoint x="935" y="564" as="sourcePoint" />
            <mxPoint x="995" y="504" as="targetPoint" />
            <Array as="points">
              <mxPoint x="970" y="555" />
              <mxPoint x="1040" y="570" />
            </Array>
          </mxGeometry>
        </mxCell>
        <mxCell id="DepcvScx0P5Axww81PKc-72" value="" style="rounded=0;whiteSpace=wrap;html=1;labelBackgroundColor=#FFFFFF;fontSize=10;" vertex="1" parent="1">
          <mxGeometry x="1420" y="50" width="370" height="390" as="geometry" />
        </mxCell>
        <mxCell id="DepcvScx0P5Axww81PKc-73" value="" style="html=1;verticalLabelPosition=bottom;align=center;labelBackgroundColor=#ffffff;verticalAlign=top;strokeWidth=2;strokeColor=#0080F0;shadow=0;dashed=0;shape=mxgraph.ios7.icons.data;" vertex="1" parent="1">
          <mxGeometry x="1470" y="78" width="70" height="92" as="geometry" />
        </mxCell>
        <mxCell id="DepcvScx0P5Axww81PKc-74" value="" style="verticalLabelPosition=bottom;aspect=fixed;html=1;verticalAlign=top;strokeColor=none;shape=mxgraph.citrix.tower_server;rounded=0;shadow=0;comic=0;fontFamily=Verdana;fontStyle=1" vertex="1" parent="1">
          <mxGeometry x="1569.07" y="267" width="65" height="85" as="geometry" />
        </mxCell>
        <mxCell id="DepcvScx0P5Axww81PKc-75" value="" style="verticalLabelPosition=bottom;aspect=fixed;html=1;verticalAlign=top;strokeColor=none;align=center;outlineConnect=0;shape=mxgraph.citrix.globe;" vertex="1" parent="1">
          <mxGeometry x="1599.07" y="317" width="41.87" height="40" as="geometry" />
        </mxCell>
        <mxCell id="DepcvScx0P5Axww81PKc-76" value="" style="image;html=1;image=img/lib/clip_art/general/Full_Folder_128x128.png;fontSize=10;" vertex="1" parent="1">
          <mxGeometry x="1700" y="117" width="40" height="35" as="geometry" />
        </mxCell>
        <mxCell id="DepcvScx0P5Axww81PKc-77" value="IFS Folder&lt;br&gt;Proposal Datasheet" style="text;html=1;strokeColor=none;fillColor=none;align=center;verticalAlign=middle;whiteSpace=wrap;rounded=0;fontSize=10;" vertex="1" parent="1">
          <mxGeometry x="1670" y="155" width="100" height="45" as="geometry" />
        </mxCell>
        <mxCell id="DepcvScx0P5Axww81PKc-78" value="LAS DB2" style="text;html=1;strokeColor=none;fillColor=none;align=center;verticalAlign=middle;whiteSpace=wrap;rounded=0;fontSize=10;" vertex="1" parent="1">
          <mxGeometry x="1465" y="175" width="80" height="20" as="geometry" />
        </mxCell>
        <mxCell id="DepcvScx0P5Axww81PKc-79" value="Kofax Sharepoint&lt;br&gt;(http://spimage.pru.intranet.asia/KofaxCam" style="text;html=1;strokeColor=none;fillColor=none;align=center;verticalAlign=middle;whiteSpace=wrap;rounded=0;fontSize=10;" vertex="1" parent="1">
          <mxGeometry x="1485" y="365" width="240" height="45" as="geometry" />
        </mxCell>
        <mxCell id="DepcvScx0P5Axww81PKc-80" value="" style="endArrow=classic;html=1;fontSize=10;entryX=0;entryY=0.5;entryDx=0;entryDy=0;" edge="1" parent="1" target="DepcvScx0P5Axww81PKc-72">
          <mxGeometry width="50" height="50" relative="1" as="geometry">
            <mxPoint x="1310" y="245" as="sourcePoint" />
            <mxPoint x="1360" y="230" as="targetPoint" />
            <Array as="points">
              <mxPoint x="1390" y="245" />
              <mxPoint x="1420" y="245" />
            </Array>
          </mxGeometry>
        </mxCell>
        <mxCell id="DepcvScx0P5Axww81PKc-81" value="PCLA Network" style="text;html=1;strokeColor=none;fillColor=none;align=center;verticalAlign=middle;whiteSpace=wrap;rounded=0;" vertex="1" parent="1">
          <mxGeometry x="660" y="10" width="140" height="20" as="geometry" />
        </mxCell>
        <mxCell id="DepcvScx0P5Axww81PKc-82" value="KC2" style="text;html=1;strokeColor=none;fillColor=none;align=center;verticalAlign=middle;whiteSpace=wrap;rounded=0;fontSize=12;" vertex="1" parent="1">
          <mxGeometry x="1580" y="20" width="80" height="20" as="geometry" />
        </mxCell>
        <mxCell id="DepcvScx0P5Axww81PKc-84" value="SAWF High Level Architecture Diagram (2020-07-29 V.03)" style="text;html=1;strokeColor=none;fillColor=none;align=left;verticalAlign=middle;whiteSpace=wrap;rounded=0;fontSize=10;fontStyle=1" vertex="1" parent="1">
          <mxGeometry x="170" y="590" width="280" height="20" as="geometry" />
        </mxCell>
      </root>
    </mxGraphModel>
  </diagram>
</mxfile>
